<?xml version="1.0" standalone="no"?>
<!DOCTYPE svg PUBLIC "-//W3C//DTD SVG 20010904//EN"
 "http://www.w3.org/TR/2001/REC-SVG-20010904/DTD/svg10.dtd">
<svg version="1.0" xmlns="http://www.w3.org/2000/svg"
 width="256.000000pt" height="256.000000pt" viewBox="0 0 256.000000 256.000000"
 preserveAspectRatio="xMidYMid meet">
<metadata>
Created by potrace 1.14, written by Peter Selinger 2001-2017
</metadata>
<g transform="translate(0.000000,256.000000) scale(0.100000,-0.100000)"
fill="#000000" stroke="none">
<path d="M1169 2236 c-2 -2 -24 -6 -49 -9 -141 -18 -282 -102 -355 -212 -45
-68 -89 -198 -80 -234 14 -57 41 -65 275 -86 70 -7 76 -6 96 17 12 12 27 41
34 63 16 51 25 62 70 85 54 27 132 22 166 -12 23 -23 27 -35 29 -97 l2 -71
-86 -1 c-47 0 -93 -2 -101 -3 -8 -2 -39 -6 -69 -10 -79 -9 -196 -52 -257 -92
-141 -94 -207 -230 -200 -414 10 -245 148 -386 391 -395 149 -6 262 25 365
101 l60 44 73 -75 c100 -104 109 -103 247 14 127 108 143 128 137 166 -3 19
-23 58 -45 87 -22 29 -44 68 -50 86 -7 21 -12 141 -12 325 -1 202 -5 314 -15
363 -44 231 -210 350 -501 360 -66 2 -122 2 -125 0z m239 -92 c99 -20 172 -55
221 -106 87 -88 99 -152 100 -532 2 -342 4 -353 79 -456 27 -36 31 -46 19 -55
-14 -10 -94 -78 -151 -127 -17 -15 -33 -28 -36 -28 -9 0 -66 64 -109 123 -24
32 -49 57 -59 57 -10 0 -31 -14 -47 -30 -84 -88 -203 -140 -332 -145 -140 -6
-223 23 -291 100 -51 58 -75 128 -78 230 -7 203 120 357 331 401 82 17 145 23
272 23 55 1 86 5 95 15 23 22 17 213 -8 254 -45 78 -149 110 -255 79 -74 -22
-118 -66 -149 -149 -8 -24 -14 -27 -42 -24 -18 2 -64 8 -103 12 -38 4 -73 9
-77 10 -5 1 -12 2 -17 3 -13 1 16 97 45 146 98 169 341 251 592 199z"/>
<path d="M1338 1495 c-2 -1 -32 -5 -68 -8 -167 -15 -262 -80 -290 -198 -31
-129 36 -237 154 -247 145 -12 247 62 286 207 18 66 21 218 5 231 -12 10 -80
21 -87 15z m16 -142 c-12 -157 -74 -233 -191 -233 -82 0 -121 49 -109 135 15
97 103 151 252 154 l52 1 -4 -57z"/>
<path d="M2028 764 c-2 -1 -19 -6 -38 -9 -41 -7 -112 -45 -117 -62 -3 -9 28
-11 117 -10 159 3 162 -2 105 -172 -15 -45 -24 -85 -21 -88 12 -13 68 54 98
117 22 45 32 84 36 131 4 61 3 68 -17 78 -19 11 -155 23 -163 15z"/>
<path d="M354 705 c-4 -9 -5 -17 -3 -18 2 -2 29 -24 59 -49 173 -142 394 -248
615 -294 123 -26 374 -26 495 0 182 39 368 113 493 198 50 34 56 41 47 58 -6
11 -16 20 -23 20 -7 0 -66 -18 -131 -40 -217 -73 -445 -109 -671 -105 -111 3
-140 5 -250 21 -159 24 -353 88 -517 170 -90 45 -110 52 -114 39z"/>
</g>
</svg>
